<svg xmlns="http://www.w3.org/2000/svg" width="80" height="60" viewBox="0 0 80 60">
  <g id="Group_3847" data-name="Group 3847" transform="translate(-563 -1765)">
    <rect id="Rectangle_200" data-name="Rectangle 200" width="80" height="60" rx="8" transform="translate(563 1765)" fill="#f5f5f5"/>
    <path id="Icon_ionic-md-cart" data-name="Icon ionic-md-cart" d="M13.677,31.252A3.524,3.524,0,1,0,17.2,34.777,3.534,3.534,0,0,0,13.677,31.252ZM3.375,3.6V7.124H6.9l6.344,12.85-2.652,4.317a3.377,3.377,0,0,0-.441,1.674c0,2.359,1.612,3.524,3.8,3.524h20.6V26.1H14.379a.416.416,0,0,1-.441-.441,2.2,2.2,0,0,1,.187-.441l1.761-2.779H29.014a3.457,3.457,0,0,0,3.084-1.85L38.442,9.68a2.06,2.06,0,0,0,.176-.881,1.694,1.694,0,0,0-1.762-1.674H10.776L9.1,3.6ZM31.027,31.252a3.524,3.524,0,1,0,3.524,3.524A3.534,3.534,0,0,0,31.027,31.252Z" transform="translate(581.625 1774.4)" fill="#460B5B"/>
  </g>
</svg>
