<svg xmlns="http://www.w3.org/2000/svg" width="80" height="60" viewBox="0 0 80 60">
  <g id="Group_3848" data-name="Group 3848" transform="translate(-162 -1765)">
    <rect id="Rectangle_199" data-name="Rectangle 199" width="80" height="60" rx="8" transform="translate(162 1765)" fill="rgba(255,80,0,0.1)"/>
    <path id="Icon_awesome-shipping-fast" data-name="Icon awesome-shipping-fast" d="M42.292,23.857H41.207V16.53a3.253,3.253,0,0,0-.956-2.3L33.481,7.462a3.253,3.253,0,0,0-2.3-.956H28.195V3.253A3.254,3.254,0,0,0,24.941,0H7.591A3.254,3.254,0,0,0,4.338,3.253V6.506H.542A.544.544,0,0,0,0,7.049V8.133a.544.544,0,0,0,.542.542H18.977a.544.544,0,0,1,.542.542V10.3a.544.544,0,0,1-.542.542H2.711a.544.544,0,0,0-.542.542v1.084a.544.544,0,0,0,.542.542h14.1a.544.544,0,0,1,.542.542v1.084a.544.544,0,0,1-.542.542H.542A.544.544,0,0,0,0,15.724v1.084a.544.544,0,0,0,.542.542h14.1a.544.544,0,0,1,.542.542v1.084a.544.544,0,0,1-.542.542H4.338v8.675a6.506,6.506,0,1,0,13.013,0h8.675a6.506,6.506,0,0,0,13.013,0h3.253a1.088,1.088,0,0,0,1.084-1.084V24.941A1.088,1.088,0,0,0,42.292,23.857ZM10.844,31.448A3.253,3.253,0,1,1,14.1,28.195,3.254,3.254,0,0,1,10.844,31.448Zm21.688,0a3.253,3.253,0,1,1,3.253-3.253A3.254,3.254,0,0,1,32.532,31.448Zm5.422-14.1h-9.76V9.76h2.989l6.771,6.771Z" transform="translate(180 1778)" fill="#ff5000"/>
  </g>
</svg>
