<svg xmlns="http://www.w3.org/2000/svg" xmlns:xlink="http://www.w3.org/1999/xlink" xml:space="preserve" style="shape-rendering:geometricPrecision;text-rendering:geometricPrecision;image-rendering:optimizeQuality;" viewBox="0 0 19.685 19.251875000000002" x="0px" y="0px"  fill-rule="evenodd" clip-rule="evenodd"><defs><style type="text/css">
   
    
   
  </style></defs><g><polygon class="fil0" points="2.8575,5.6859 5.3975,5.6859 5.3975,15.4015 2.8575,15.4015 "/><polygon class="fil0" points="5.715,5.6859 8.255,5.6859 8.255,15.4015 5.715,15.4015 "/><polygon class="fil0" points="8.5725,5.6859 11.1125,5.6859 11.1125,15.4015 8.5725,15.4015 "/><polygon class="fil0" points="11.43,5.6859 13.97,5.6859 13.97,15.4015 11.43,15.4015 "/><polygon class="fil0" points="14.2875,5.6859 16.8275,5.6859 16.8275,15.4015 14.2875,15.4015 "/><path class="fil0" d="M-0 5.6859l1.1728 0 8.0567 -4.9192c-0.0878,-0.3905 0.2081,-0.7667 0.613,-0.7667 0.4049,0 0.7008,0.3762 0.613,0.7667l8.0567 4.9192 1.1728 0 0 9.7156 -2.54 0 0 -9.7156 0.3547 0 -7.3688 -4.4992c-0.1789,0.0926 -0.3979,0.0926 -0.5768,0l-7.3688 4.4992 0.3547 0 0 9.7156 -2.54 0 0 -9.7156z"/></g><text x="0" y="30.4015" fill="#460B5B" font-size="5px" font-weight="bold" font-family="'Helvetica Neue', Helvetica, Arial-Unicode, Arial, Sans-serif">Created by FELIX FX</text><text x="0" y="35.4015" fill="#000000" font-size="5px" font-weight="bold" font-family="'Helvetica Neue', Helvetica, Arial-Unicode, Arial, Sans-serif">from the Noun Project</text></svg>