<svg height='100px' width='100px'  fill="#460b5b" xmlns:rdf="http://www.w3.org/1999/02/22-rdf-syntax-ns#" xmlns="http://www.w3.org/2000/svg" xmlns:cc="http://creativecommons.org/ns#" xmlns:dc="http://purl.org/dc/elements/1.1/" version="1.1" x="0px" y="0px" viewBox="0 0 100 100"><g transform="translate(0,-952.36218)"><path style="baseline-shift:baseline;block-progression:tb;color:#000000;direction:ltr;text-indent:0;enable-background:accumulate;text-transform:none;" fill="#460b5b" d="m19.896,969.39a0.80008,0.80008,0,0,0,-0.09375,0.0312,0.80008,0.80008,0,0,0,-0.21875,1.4688l9.7812,6.125,11.219,45.781a0.80008,0.80008,0,0,0,0.78125,0.5937h53.594a0.80008,0.80008,0,1,0,0,-1.5937h-53l-11.094-45.469a0.80008,0.80008,0,0,0,-0.375,-0.5l-10.062-6.2812a0.80008,0.80008,0,0,0,-0.53125,-0.1562zm29.125,13c-1.5014,0-2.6875,1.1963-2.6875,2.6875v10.75h17.906v-13.438h-15.219zm16.812,0,0,13.438,5.375,0,0-7.0625a0.80008,0.80008,0,0,1,0,-0.25v-6.125h-5.375zm6.9688,0,0,6.125a0.80008,0.80008,0,0,1,0,0.0312v7.2812h17.688v-10.75c0-1.4912-1.1861-2.6875-2.6875-2.6875h-15zm-67.938,2.5625a0.80435,0.80435,0,1,0,0.21875,1.5938h15.344a0.80008,0.80008,0,1,0,0,-1.5938h-15.344a0.80008,0.80008,0,0,0,-0.15625,0,0.8007,0.8007,0,0,0,-0.0625,0zm41.469,12.469,0,5.3125,18.719,0,0.0625,0,6.9062,0,18.438,0,0-5.3125-18.438,0-6.875,0-0.09375,0-18.719,0zm-35.781,2.5312a0.81625,0.81625,0,1,0,0.15625,1.625h15.344a0.81252,0.81252,0,0,0,0,-1.625h-15.344a0.81252,0.81252,0,0,0,-0.15625,0zm35.781,4.375,0,10.781c0,1.4913,1.1817,2.6562,2.6875,2.6562h15.219v-13.438h-17.906zm19.5,0,0,13.438,5.375,0,0-6.25a0.80008,0.80008,0,0,1,0,-0.1562v-7.0313h-5.375zm6.9688,0,0,6.9688a0.80008,0.80008,0,0,1,0,0.2187v6.25h15c1.5058,0,2.6875-1.1649,2.6875-2.6562v-10.781h-17.688zm-54.719,10.656a0.81625,0.81625,0,1,0,0.15625,1.625h15.344a0.8125,0.8125,0,0,0,0,-1.625h-15.344a0.80008,0.80008,0,0,0,-0.09375,0,0.81385,0.81385,0,0,0,-0.0625,0zm36.281,11.344c-2.4741,0-4.4688,2.0272-4.4688,4.5s1.9947,4.5,4.4688,4.5,4.5-2.0272,4.5-4.5-2.0259-4.5-4.5-4.5zm28.5,0c-2.4741,0-4.4688,2.0272-4.4688,4.5s1.9947,4.5,4.4688,4.5,4.5-2.0272,4.5-4.5-2.0259-4.5-4.5-4.5z"></path></g></svg>