<svg xmlns="http://www.w3.org/2000/svg" width="80" height="60" viewBox="0 0 80 60">
  <g id="Group_3846" data-name="Group 3846" transform="translate(-563 -2099)">
    <rect id="Rectangle_202" data-name="Rectangle 202" width="80" height="60" rx="8" transform="translate(563 2099)" fill="rgba(255,80,0,0.1)"/>
    <path id="Icon_metro-ship" data-name="Icon metro-ship" d="M39.141,37.265a1.271,1.271,0,0,1,1.822,0l2.592,2.592-1.822,1.822L40.053,40l-1.681,1.681a1.271,1.271,0,0,1-1.822,0L34.869,40l-1.681,1.681a1.271,1.271,0,0,1-1.822,0L29.686,40l-1.681,1.681a1.271,1.271,0,0,1-1.822,0L24.5,40l-1.681,1.681a1.271,1.271,0,0,1-1.822,0L19.319,40l-1.681,1.681a1.271,1.271,0,0,1-1.822,0L14.136,40l-1.681,1.681a1.271,1.271,0,0,1-1.822,0L8.952,40,7.272,41.679a1.271,1.271,0,0,1-1.822,0L2.858,39.087,4.68,37.265l1.681,1.681,1.681-1.681a1.271,1.271,0,0,1,1.822,0l1.681,1.681,1.681-1.681a1.271,1.271,0,0,1,1.822,0l1.681,1.681,1.681-1.681a1.271,1.271,0,0,1,1.822,0l1.681,1.681,1.681-1.681a1.271,1.271,0,0,1,1.822,0l1.681,1.681,1.681-1.681a1.271,1.271,0,0,1,1.822,0l1.681,1.681,1.681-1.681a1.271,1.271,0,0,1,1.822,0l1.681,1.681ZM7.272,36.5a1.271,1.271,0,0,1-1.822,0L2.858,33.9,4.68,32.081l1.681,1.66,1.681-1.66a1.271,1.271,0,0,1,1.822,0l1.681,1.66,1.3-1.3V26.513L8.588,20.155a1.269,1.269,0,0,1-.142-1.144,1.218,1.218,0,0,1,.81-.82l3.584-1.174V10.963h2.592V8.371h5.183V5.78H25.8V8.371h5.183v2.592h2.592v6.054l3.584,1.174a1.218,1.218,0,0,1,.81.82,1.269,1.269,0,0,1-.142,1.144l-4.252,6.358v5.933l.385-.364a1.271,1.271,0,0,1,1.822,0l1.681,1.66,1.681-1.66a1.271,1.271,0,0,1,1.822,0l2.592,2.592L41.733,36.5l-1.681-1.681L38.372,36.5a1.271,1.271,0,0,1-1.822,0l-1.681-1.681L33.189,36.5a1.271,1.271,0,0,1-1.822,0l-1.681-1.681L28.005,36.5a1.271,1.271,0,0,1-1.822,0L24.5,34.815,22.822,36.5A1.271,1.271,0,0,1,21,36.5l-1.681-1.681L17.639,36.5a1.271,1.271,0,0,1-1.822,0l-1.681-1.681L12.455,36.5a1.271,1.271,0,0,1-1.822,0L8.952,34.815Zm8.16-22.94v2.592l7.775-2.592,7.775,2.592V13.555H28.39V10.963H18.023v2.592H15.432Z" transform="translate(580.142 2105.22)" fill="#ff5000"/>
  </g>
</svg>
